<?xml version="1.0" standalone="no"?><svg xmlns="http://www.w3.org/2000/svg" viewBox="0 0 1440 320"><path fill="#f5f5f5" fill-opacity="1" d="M0,128L13.3,128C26.7,128,53,128,80,144C106.7,160,133,192,160,208C186.7,224,213,224,240,229.3C266.7,235,293,245,320,224C346.7,203,373,149,400,106.7C426.7,64,453,32,480,64C506.7,96,533,192,560,218.7C586.7,245,613,203,640,176C666.7,149,693,139,720,138.7C746.7,139,773,149,800,176C826.7,203,853,245,880,272C906.7,299,933,309,960,261.3C986.7,213,1013,107,1040,101.3C1066.7,96,1093,192,1120,229.3C1146.7,267,1173,245,1200,229.3C1226.7,213,1253,203,1280,213.3C1306.7,224,1333,256,1360,256C1386.7,256,1413,224,1427,208L1440,192L1440,320L1426.7,320C1413.3,320,1387,320,1360,320C1333.3,320,1307,320,1280,320C1253.3,320,1227,320,1200,320C1173.3,320,1147,320,1120,320C1093.3,320,1067,320,1040,320C1013.3,320,987,320,960,320C933.3,320,907,320,880,320C853.3,320,827,320,800,320C773.3,320,747,320,720,320C693.3,320,667,320,640,320C613.3,320,587,320,560,320C533.3,320,507,320,480,320C453.3,320,427,320,400,320C373.3,320,347,320,320,320C293.3,320,267,320,240,320C213.3,320,187,320,160,320C133.3,320,107,320,80,320C53.3,320,27,320,13,320L0,320Z"></path></svg>